<svg xmlns="http://www.w3.org/2000/svg" width="279" height="57">
  <g fill="#7388D3" fill-rule="evenodd">
    <g fill-rule="nonzero">
      <path d="M214.814 19.95l-4.625 1.816c8.463 11.805 13.373 16.384 18.202 17.614 4.278 1.088 16.363-.486 37.386-4.675 1.699-.339 3.414.503 4.084 2.003l3.522 7.884c.872 1.953-.112 4.198-2.197 5.014-.5.196-1.037.297-1.58.297h-33.332c-3.736 0-7.27-1.593-9.6-4.327l-21.497-25.462-3.77 3.054 21.126 25.5c3.335 3.915 8.393 6.194 13.741 6.194h33.332a9.948 9.948 0 0 0 3.623-.68c4.785-1.873 7.042-7.023 5.042-11.503l-3.522-7.885c-1.653-3.7-5.885-5.775-10.075-4.94-19.834 3.953-31.841 5.517-34.893 4.74-3.087-.786-7.268-3.905-14.967-14.644z"/>
      <path d="M251.876 51.689l7.938-1.008-2.22-16.978-7.938 1.008zm-7.816 0l5.596-.949-3.432-15.979-5.597.949z"/>
      <path d="M238.64 51.689l5.373-.763-2.527-16.165-5.373.763z"/>
    </g>
    <path d="M10.114 57H0c9.94-3.339 15.29-5.77 16.052-7.295.762-1.525-3.235-2.425-11.992-2.701 5.218-1.561 9.215-3.958 11.992-7.19 4.166-4.848 5.856-14.129 3.45-20.53-1.603-4.267-5.32-7.661-11.149-10.182 8.635 1.68 12.953 1.68 12.953 0S16.988 4.388 8.353 0l30.458.04c7.332.025 12.803 1.382 16.416 4.07 3.612 2.689 5.257 6.46 4.936 11.314-.401 6.003-3.772 10.257-10.114 12.763 2.275.783 4.047 2.199 5.318 4.247 1.271 2.05 1.813 4.509 1.626 7.38-.375 5.507-2.602 9.748-6.683 12.723C46.23 55.512 40.644 57 33.553 57h-23.44zm18.061-24.233L25.727 46.43l8.228.04c2.568 0 4.709-.62 6.421-1.86 1.713-1.24 2.73-2.89 3.05-4.953.75-4.358-.963-6.642-5.137-6.85l-10.114-.04zm1.565-9.004l6.462.04c5.967-.131 9.312-2.363 10.034-6.695.642-4.28-1.632-6.434-6.823-6.46l-7.305-.039-2.368 13.154zM52.28 57c4.397-.306 7.927-1.773 10.589-4.403 3.012-2.975 4.657-7.216 4.934-12.723.138-2.87-.262-5.33-1.2-7.38-.939-2.048-2.248-3.464-3.927-4.247 4.682-2.505 7.171-6.76 7.467-12.762.237-4.855-.977-8.626-3.644-11.314C63.832 1.483 59.792.126 54.379.1L51.29.094A13.97 13.97 0 0 0 49.67 0l43.003.04c6.61 0 11.7 1.506 15.272 4.52 3.572 3.015 5.171 7.132 4.796 12.352-.294 4.124-1.511 7.536-3.652 10.237-2.14 2.702-5.137 4.835-8.99 6.401l7.866 22.784V57h-14.65l-6.421-20.122h-7.626L75.656 57H52.28zm28.834-30.731l8.027.078c2.195 0 4.101-.522 5.72-1.566 1.619-1.044 2.776-2.473 3.472-4.287.695-1.814.896-3.569.602-5.265-.535-2.897-2.435-4.424-5.7-4.58l-9.311-.04-2.81 15.66zM120.415 57v-.666L112.55 33.55c3.105-1.262 5.655-2.893 7.648-4.893l.136-.078.013-.074c.424-.434.821-.886 1.193-1.356 2.14-2.7 3.358-6.113 3.652-10.237.219-3.04-.233-5.708-1.354-8l.015-.086-.083-.05c-.8-1.586-1.924-2.992-3.374-4.215-2.708-2.286-6.289-3.705-10.743-4.257L109.146 0h29.965l-10.115 57h-8.58zm65.775 0h-13.285l-13.967-35.977L152.516 57H138.79l10.114-57h13.405l13.927 35.977L182.618 0h13.726L186.19 57zm28.907-33.563L208.907 57h-13.726l10.114-57h13.766l-3.015 19.593.85 1.183 3.49-3.16L235.557 0h17.82L224.28 30.162l-9.182-6.725z"/>
  </g>
</svg>
