<svg xmlns="http://www.w3.org/2000/svg" width="418" height="85">
  <g fill="#FFF" fill-rule="evenodd">
    <g fill-rule="nonzero">
      <path d="M322.183 29.383l-6.905 2.735c12.635 17.775 19.964 24.671 27.173 26.522 6.385 1.64 24.427-.73 55.81-7.04 2.535-.509 5.097.758 6.097 3.017l5.257 11.872c1.302 2.94-.167 6.321-3.28 7.55a6.424 6.424 0 0 1-2.358.447H354.22c-5.578 0-10.853-2.398-14.331-6.515l-32.091-38.34-5.628 4.598 31.537 38.4c4.979 5.893 12.529 9.326 20.513 9.326h49.758c1.857 0 3.695-.349 5.409-1.025 7.143-2.821 10.512-10.576 7.525-17.322l-5.257-11.872c-2.467-5.572-8.785-8.697-15.04-7.44-29.609 5.952-47.533 8.307-52.088 7.138-4.608-1.184-10.85-5.88-22.343-22.051z"/>
      <path d="M377.51 77.175l11.849-1.518-3.315-25.564-11.849 1.518zm-11.67 0l8.355-1.428-5.123-24.061-8.355 1.428z"/>
      <path d="M357.75 77.175l8.022-1.149-3.773-24.34-8.021 1.149z"/>
    </g>
    <path d="M15.134 85H0c14.873-4.979 22.88-8.605 24.02-10.879 1.14-2.274-4.842-3.616-17.944-4.028 7.806-2.328 13.788-5.902 17.943-10.721 6.234-7.23 8.764-21.07 5.164-30.615-2.4-6.363-7.961-11.424-16.684-15.185 12.921 2.505 19.381 2.505 19.381 0S25.42 6.543 12.5 0l45.575.058c10.97.04 19.158 2.063 24.563 6.072 5.405 4.009 7.868 9.632 7.387 16.871-.6 8.952-5.645 15.296-15.134 19.032 3.403 1.168 6.056 3.279 7.957 6.334 1.902 3.055 2.713 6.723 2.433 11.005-.56 8.212-3.894 14.536-10 18.973C69.175 82.782 60.818 85 50.207 85H15.134zM42.16 48.863l-3.664 20.375 12.312.058c3.844 0 7.047-.924 9.61-2.773 2.562-1.849 4.083-4.31 4.563-7.385 1.121-6.5-1.44-9.905-7.687-10.216l-15.134-.059zm2.342-13.427l9.67.059c8.928-.195 13.932-3.523 15.013-9.983.961-6.383-2.442-9.594-10.21-9.633l-10.93-.058-3.543 19.615zM78.228 85c6.58-.456 11.862-2.644 15.846-6.565 4.508-4.437 6.968-10.761 7.382-18.973.207-4.282-.392-7.95-1.796-11.005-1.404-3.055-3.362-5.166-5.874-6.334 7.005-3.736 10.73-10.08 11.173-19.032.355-7.239-1.463-12.862-5.454-16.871C95.515 2.21 89.47.187 81.371.148L78.025.143A20 20 0 0 0 75.64 0h-1.317l64.348.058c9.89 0 17.506 2.248 22.851 6.743 5.346 4.495 7.738 10.635 7.177 18.419-.44 6.15-2.262 11.238-5.465 15.266-3.203 4.028-7.687 7.21-13.453 9.545l11.771 33.977V85h-21.92l-9.61-30.007h-11.41L113.207 85H78.228zm43.147-45.828l12.012.117c3.283 0 6.135-.778 8.558-2.335 2.422-1.557 4.154-3.688 5.195-6.393 1.04-2.704 1.341-5.322.9-7.852-.8-4.32-3.643-6.596-8.528-6.83l-13.933-.058-4.204 23.351zM180.183 85v-.992L168.412 50.03c4.647-1.882 8.462-4.315 11.444-7.297l.204-.116.02-.11a26.45 26.45 0 0 0 1.784-2.022c3.204-4.028 5.025-9.117 5.466-15.266.326-4.535-.35-8.512-2.027-11.93l.023-.128-.124-.074c-1.197-2.367-2.88-4.462-5.05-6.287-4.051-3.408-9.41-5.524-16.074-6.348L163.321 0h44.837l-15.135 85h-12.84zm98.422 0h-19.879l-20.9-53.65-9.61 53.65h-20.539l15.135-85h20.059l20.84 53.65L273.26 0h20.54l-15.195 85zm43.254-50.05L312.597 85h-20.54l15.135-85h20.6l-4.512 29.218 1.272 1.764 5.222-4.711L352.475 0h26.666l-43.542 44.978-13.74-10.028z"/>
  </g>
</svg>
